<svg width="653" height="653" viewBox="0 0 653 653" fill="none" xmlns="http://www.w3.org/2000/svg">
<g clip-path="url(#clip0)">
<rect width="653" height="653" fill="white"/>
<ellipse cx="326.576" cy="340.41" rx="59.0816" ry="46.7361" fill="white"/>
<ellipse cx="325.041" cy="96.5792" rx="33.8043" ry="42.3219" fill="white"/>
<path d="M367.137 176.431H282.661V84.3133C282.661 73.4424 287.111 63.0166 295.032 55.3297C302.953 47.6427 313.697 43.3242 324.899 43.3242C336.101 43.3242 346.845 47.6427 354.766 55.3297C362.687 63.0166 367.137 73.4424 367.137 84.3133V176.431ZM296.364 163.133H353.435V84.3133C353.435 76.969 350.428 69.9255 345.077 64.7323C339.725 59.5391 332.467 56.6216 324.899 56.6216C317.331 56.6216 310.073 59.5391 304.722 64.7323C299.37 69.9255 296.364 76.969 296.364 84.3133V163.133Z" fill="#0448A3"/>
<path d="M324.897 391.915C306.932 391.897 289.708 384.964 277.005 372.636C264.301 360.308 257.157 343.593 257.139 326.159V310.535C257.148 296.821 262.76 283.671 272.746 273.968C282.732 264.265 296.276 258.801 310.407 258.775H339.388C353.516 258.793 367.06 264.249 377.046 273.947C387.033 283.645 392.647 296.791 392.656 310.502V326.126C392.647 343.566 385.506 360.289 372.802 372.624C360.098 384.959 342.868 391.897 324.897 391.915ZM310.407 272.238C299.913 272.256 289.854 276.312 282.437 283.516C275.02 290.72 270.85 300.484 270.841 310.668V326.292C270.841 340.205 276.536 353.548 286.674 363.386C296.811 373.223 310.561 378.75 324.897 378.75C339.234 378.75 352.983 373.223 363.121 363.386C373.259 353.548 378.954 340.205 378.954 326.292V310.668C378.972 305.611 377.962 300.601 375.983 295.923C374.003 291.246 371.093 286.993 367.418 283.408C363.743 279.823 359.375 276.977 354.566 275.032C349.756 273.087 344.599 272.081 339.388 272.072L310.407 272.238Z" fill="#0448A3"/>
<path d="M462.953 316.386L422.257 268.349V197.341C422.257 172.311 412.01 148.305 393.772 130.606C375.533 112.907 350.796 102.963 325.003 102.963C312.231 102.963 299.585 105.405 287.786 110.148C275.986 114.89 265.265 121.842 256.235 130.606C247.204 139.37 240.04 149.774 235.153 161.224C230.265 172.675 227.749 184.947 227.749 197.341V268.349L186.951 316.386C185.587 317.997 184.724 319.951 184.461 322.021C184.198 324.09 184.547 326.189 185.466 328.073C186.385 329.958 187.836 331.55 189.652 332.665C191.467 333.78 193.572 334.371 195.72 334.37H454.32C456.457 334.346 458.543 333.737 460.339 332.612C462.134 331.488 463.565 329.893 464.468 328.014C465.37 326.134 465.706 324.045 465.438 321.988C465.17 319.93 464.309 317.989 462.953 316.386Z" fill="#0448A3"/>
<path d="M454.215 341.021H195.614C192.169 341.018 188.796 340.067 185.886 338.276C182.977 336.486 180.651 333.931 179.179 330.908C177.708 327.885 177.151 324.518 177.574 321.2C177.997 317.882 179.383 314.749 181.569 312.166L220.793 265.99V197.343C220.793 170.549 231.761 144.852 251.285 125.906C270.808 106.96 297.287 96.3164 324.897 96.3164C352.508 96.3164 378.987 106.96 398.511 125.906C418.034 144.852 429.002 170.549 429.002 197.343V265.99L468.226 312.166C470.425 314.743 471.822 317.875 472.254 321.195C472.686 324.514 472.135 327.885 470.665 330.912C469.195 333.939 466.867 336.497 463.954 338.287C461.041 340.077 457.663 341.026 454.215 341.021ZM324.897 109.614C300.93 109.64 277.951 118.891 261.004 135.338C244.056 151.785 234.522 174.084 234.495 197.343V270.744L192.154 320.609C191.604 321.24 191.252 322.011 191.139 322.83C191.026 323.649 191.158 324.483 191.519 325.231C191.879 325.98 192.454 326.613 193.174 327.055C193.893 327.496 194.728 327.728 195.58 327.723H454.181C455.026 327.715 455.852 327.475 456.564 327.03C457.275 326.586 457.842 325.956 458.2 325.212C458.558 324.469 458.693 323.642 458.588 322.828C458.483 322.013 458.142 321.244 457.606 320.609L415.231 270.744V197.343C415.204 174.095 405.68 151.807 388.747 135.362C371.814 118.917 348.853 109.658 324.897 109.614Z" fill="#0448A3"/>
<path d="M144.673 489.309L142.165 498.717H163.959L161.607 489.309C160.144 484.187 158.733 478.752 157.374 473.003C156.015 467.253 154.656 461.713 153.297 456.382H152.67C151.416 461.818 150.109 467.41 148.75 473.159C147.496 478.804 146.137 484.187 144.673 489.309ZM107.67 541.051L139.656 438.821H167.409L199.395 541.051H174.935L168.663 516.748H137.461L131.189 541.051H107.67ZM229.851 542.933C225.879 542.933 222.534 542.306 219.816 541.051C217.098 539.797 214.903 538.072 213.23 535.877C211.663 533.577 210.513 530.86 209.781 527.724C209.049 524.483 208.683 520.877 208.683 516.905V431.138H231.732V517.846C231.732 520.25 232.15 521.922 232.987 522.863C233.927 523.804 234.868 524.274 235.809 524.274C236.332 524.274 236.75 524.274 237.063 524.274C237.481 524.274 238.004 524.17 238.631 523.961L241.453 541.051C240.199 541.574 238.579 541.992 236.593 542.306C234.711 542.724 232.464 542.933 229.851 542.933ZM253.547 541.051V463.281H272.363L273.931 476.922H274.558C277.38 471.591 280.777 467.672 284.75 465.163C288.722 462.654 292.694 461.4 296.666 461.4C298.861 461.4 300.638 461.557 301.997 461.87C303.46 462.079 304.767 462.445 305.917 462.968L302.154 482.881C300.69 482.462 299.331 482.149 298.077 481.94C296.823 481.731 295.359 481.626 293.687 481.626C290.76 481.626 287.676 482.672 284.436 484.762C281.3 486.853 278.687 490.564 276.596 495.895V541.051H253.547ZM345.968 542.933C341.16 542.933 337.031 542.201 333.581 540.738C330.236 539.274 327.466 537.236 325.271 534.623C323.18 532.009 321.613 528.874 320.567 525.215C319.626 521.452 319.156 517.323 319.156 512.828V481.313H308.494V464.222L320.41 463.281L323.076 442.584H342.205V463.281H360.863V481.313H342.205V512.515C342.205 516.905 343.093 520.093 344.87 522.079C346.752 523.961 349.208 524.901 352.24 524.901C353.494 524.901 354.748 524.745 356.003 524.431C357.362 524.117 358.564 523.752 359.609 523.334L363.215 540.111C361.125 540.738 358.668 541.365 355.846 541.992C353.024 542.619 349.731 542.933 345.968 542.933ZM376.043 541.051V463.281H399.092V541.051H376.043ZM387.489 451.835C383.621 451.835 380.433 450.738 377.925 448.543C375.416 446.243 374.161 443.316 374.161 439.762C374.161 436.208 375.416 433.334 377.925 431.138C380.433 428.943 383.621 427.846 387.489 427.846C391.461 427.846 394.649 428.943 397.053 431.138C399.562 433.334 400.816 436.208 400.816 439.762C400.816 443.316 399.562 446.243 397.053 448.543C394.649 450.738 391.461 451.835 387.489 451.835ZM423.296 541.051V481.313H412.947V464.222L423.296 463.438V459.205C423.296 455.128 423.766 451.26 424.707 447.602C425.752 443.943 427.425 440.755 429.724 438.037C432.024 435.32 435.003 433.177 438.661 431.609C442.32 430.041 446.763 429.257 451.989 429.257C455.229 429.257 458.156 429.571 460.769 430.198C463.487 430.825 465.735 431.452 467.512 432.079L463.278 449.013C460.351 447.968 457.686 447.445 455.282 447.445C452.459 447.445 450.264 448.334 448.696 450.111C447.128 451.783 446.344 454.605 446.344 458.577V463.281H460.299V481.313H446.344V541.051H423.296ZM481.438 571.469C479.034 571.469 476.996 571.313 475.323 570.999C473.651 570.79 472.03 570.424 470.463 569.901L474.539 552.34C475.271 552.55 476.107 552.759 477.048 552.968C477.989 553.177 478.877 553.281 479.713 553.281C483.581 553.281 486.56 552.34 488.651 550.459C490.741 548.577 492.309 546.121 493.354 543.09L494.452 539.013L464.504 463.281H487.71L498.842 496.678C499.992 500.232 501.037 503.839 501.978 507.497C502.919 511.156 503.912 514.919 504.957 518.786H505.584C506.421 515.128 507.257 511.469 508.093 507.811C509.034 504.048 509.975 500.337 510.915 496.678L520.323 463.281H542.431L515.462 541.835C513.581 546.748 511.595 551.034 509.504 554.692C507.518 558.455 505.166 561.539 502.449 563.943C499.835 566.452 496.804 568.333 493.354 569.588C490.01 570.842 486.037 571.469 481.438 571.469Z" fill="#0448A3"/>
<ellipse cx="387.478" cy="439.545" rx="13.7343" ry="12.3236" fill="#2D9CDB"/>
</g>
<defs>
<clipPath id="clip0">
<rect width="653" height="653" fill="white"/>
</clipPath>
</defs>
</svg>
